<svg width="90" height="90" xmlns="http://www.w3.org/2000/svg" xmlns:svg="http://www.w3.org/2000/svg">
 <g>
  <title>Layer 1</title>
  <g id="svg_4">
   <path d="m40.89009,58.36024c1.96001,-1.37006 3.85999,-2.97003 6.31001,-3.34003c0.42999,1.12999 0.87,2.26001 1.3,3.40002c-2.52998,-0.15002 -5.07001,-0.18005 -7.60999,-0.06l0,0l-0.00002,0.00001z" fill="#030303" stroke-linecap="square" id="svg_3"/>
   <path d="m26.26011,26.65011c1.31995,-5.94 -0.71002,-11.92993 0,-17.8999c2.42999,-2.78998 6.59998,-3.40997 10.13995,-3.5c1.69,2.82001 1.87,6.17999 2.40002,9.34998c0.41998,8.27991 -0.40002,16.55994 -1.10999,24.78979c3.71997,-3.56 7.78999,-7.39984 12.96999,-8.53986c5.79005,-0.38 9.5099,5.29987 11.61993,9.9599c1.75,5.39001 2.63995,11.14001 2.34998,16.80988c-1.16998,5.67999 -1.15997,11.52002 -2.03003,17.24994c-3.20996,4 -7.96986,6.44995 -12.66988,8.26997c-4.98999,1.60999 -9.62,-1.85999 -12.94001,-5.20996c-1.97002,-1.81001 -2.22997,-4.60004 -2.92999,-7.02991c-3.00002,-0.66003 -6.16999,-0.82001 -8.95002,-2.25c0.09998,-5.36006 -0.03003,-10.74004 0.47998,-16.0799c0.66003,-8.63 0.38,-17.29004 0.67004,-25.91992l0.00002,0l0,-0.00001l0.00001,0zm14.99989,19.5802c-1.49988,9.1701 -1.87988,18.78021 -5.48993,27.4303c2,0.46002 4.14001,1.07001 6.16992,0.38c5.65003,-1.16998 8.71992,-6.56013 12.98994,-9.9001c-0.42004,-3.54999 1.00996,-7.32013 -0.82001,-10.63013c-2.13,-5.52008 -2.22003,-12.5802 -7.7699,-16.04022c-2.06001,2.67004 -4.34003,5.37012 -5.08002,8.76013l0,0.00001l0,0.00001z" fill="#030303" stroke-linecap="square" id="svg_2"/>
  </g>
 </g>
</svg>