<svg width="456" height="456" xmlns="http://www.w3.org/2000/svg" >
 <metadata id="metadata8">image/svg+xml</metadata>
 <defs>
  <clipPath clipPathUnits="userSpaceOnUse" id="clipPath48">
   <path d="m247.5794,376.0067l118.3677,0l0,86.8033l-118.3677,0l0,-86.8033z" id="path46"/>
  </clipPath>
  <clipPath clipPathUnits="userSpaceOnUse" id="clipPath52">
   <path clip-rule="evenodd" d="m247.579407,376.006714l118.3677,0l0,86.8034l-118.3677,0l0,-86.8034z" id="path50"/>
  </clipPath>
  <mask maskUnits="userSpaceOnUse" x="0" y="0" width="1" height="1" id="mask60">
   <g id="g72">
    <g clip-path="url(#clipPath48)" id="g70">
     <g id="g68">
      <g id="g66">
       <g clip-path="url(#clipPath52)" id="g64">
        <path fill="url(#linearGradient58)" fill-rule="evenodd" d="m247.579407,376.006714l118.3677,0l0,86.8034l-118.3677,0l0,-86.8034z" id="path62"/>
       </g>
      </g>
     </g>
    </g>
   </g>
  </mask>
  <linearGradient x1="0.755781" y1="-7.77458" x2="0.510274" y2="1.811104" spreadMethod="pad" id="linearGradient58">
   <stop stop-color="#ffffff" offset="0" id="stop54"/>
   <stop stop-opacity="0" stop-color="#ffffff" offset="1" id="stop56"/>
  </linearGradient>
 </defs>
 <g>
  <title>background</title>
  <rect fill="none" id="canvas_background" height="402" width="582" y="-1" x="-1"/>
 </g>
 <g>
  <title>Layer 1</title>
  <g id="g10" transform="matrix(1.3333333,0,0,-1.3333333,0,1122.5197) ">
   <g id="g12">
    <g id="g14">
     <path fill="#b37a81" fill-rule="evenodd" d="m171.0422,841.889781c94.464,0 171.0425,-76.5782 171.0425,-171.0422c0,-94.464 -76.5785,-171.0426 -171.0425,-171.0426c-94.4637,0 -171.0422,76.5786 -171.0422,171.0426c0,94.464 76.5785,171.0422 171.0422,171.0422" id="path16"/>
     <g id="g18">
      <path fill="#26efe9" fill-rule="evenodd" d="m138.0313,644.190781c0,0 2.3327,-7.2657 -4.4847,-11.3025c-6.8176,-4.0366 -23.6814,-12.917 -29.4222,-16.0566c-5.1602,-2.8222 -56.8434,-26.4436 -74.5409,-42.1373c30.7814,-45.2004 82.648,-74.8894 141.4587,-74.8894c68.0034,0 126.7305,39.6891 154.298,97.1643c-28.6314,14.463 -65.416,29.9781 -72.9397,32.5999c-11.8409,4.1261 -17.9402,6.4581 -17.9402,6.4581l-96.429,8.1635z" id="path20"/>
      <path fill="#1a1a1a" fill-rule="nonzero" d="m140.2973,642.079581c0.1766,-2.9568 -0.5006,-7.71 -5.7789,-10.8357c-4.7971,-2.8401 -14.787,-8.1933 -22.2339,-12.1839c-2.9695,-1.5908 -5.5272,-2.9619 -7.2482,-3.9027c-0.9765,-0.5341 -3.285,-1.656 -6.5775,-3.2559c-15.6569,-7.6076 -53.7633,-26.125 -67.8038,-38.7777c-0.7254,1.0401 -1.4415,2.0875 -2.1442,3.1442c15.1623,13.2562 52.6947,31.4949 68.2886,39.0722c3.2891,1.5979 5.5945,2.7184 6.4131,3.1663c1.6008,0.8753 4.2273,2.283 7.278,3.9175c7.3423,3.9342 17.1918,9.2123 22.0841,12.109c5.5049,3.259 3.638,9.0732 3.6329,9.0896l-0.8456,2.7139c33.1705,-2.8106 66.341,-5.6251 99.5125,-8.4246l0.2586,-0.0978c0.0175,-0.007 6.1265,-2.3425 17.8954,-6.4434c7.4585,-2.5988 43.5481,-17.8118 72.0944,-32.1568l1.0275,-0.5179c-0.5371,-1.1526 -1.0871,-2.298 -1.6489,-3.4364l-1.0828,0.5456c-28.393,14.2679 -64.245,29.3837 -71.646,31.9627c-10.5108,3.6626 -16.4611,5.896 -17.7273,6.3756l-93.748,7.9362z" id="path22"/>
      <path fill="#ebb48d" fill-rule="evenodd" d="m241.232,685.767681c0,0 -2.9602,-14.0836 -3.4087,-26.5518c-0.4481,-12.4685 0.9868,-21.9765 1.3456,-23.4119c0.3589,-1.4352 7.6247,-27.1795 7.8041,-32.9205c0.1797,-5.7407 -21.8869,-38.2121 -45.2092,-41.2622c-23.3223,-3.0498 -52.7437,20.99 -58.3055,30.6777c-5.5616,9.6877 -6.9968,26.1927 -6.9968,27.8073c0,1.6146 4.3058,14.5315 4.3058,14.5315l-1.9735,16.3256l20.99,-16.3256c0,0 48.0799,6.9968 50.5914,9.3288c2.5115,2.3324 26.5983,44.6573 26.5983,44.6573l4.2585,-2.8562z" id="path24"/>
      <path fill="#f0f0f0" fill-rule="evenodd" d="m244.6355,614.964481c1.268,-5.2523 2.2723,-9.9915 2.3375,-12.081c0.1797,-5.7407 -21.8869,-38.2121 -45.2092,-41.2622c-13.2185,-1.7286 -28.3946,5.2458 -40.0771,13.3758c7.7633,-2.4528 21.6185,-5.1556 37.768,-0.75c24.942,6.8037 45.1808,40.7174 45.1808,40.7174" id="path26"/>
      <path fill="#1a1a1a" fill-rule="nonzero" d="m246.4894,615.412981c0.6551,-2.7137 1.2336,-5.2507 1.6424,-7.3089c0.4323,-2.1767 0.7106,-3.9864 0.7475,-5.1681c0.1193,-3.8265 -8.2848,-18.0434 -20.3247,-29.0319c-7.7227,-7.0486 -16.9875,-12.9243 -26.5442,-14.1741c-6.3255,-0.8268 -13.0337,0.2262 -19.6013,2.4183c-7.7553,2.5883 -15.3229,6.7623 -21.8137,11.279l-10.3187,7.1813l11.9857,-3.7874c3.7744,-1.1925 9.0275,-2.446 15.2907,-2.8649c6.2765,-0.4196 13.5663,-0.008 21.4007,2.1296c24.1886,6.5982 43.9872,39.7701 44.0447,39.8654l2.4016,3.9733l1.0893,-4.5116zm-2.1104,-8.0411c-0.1737,0.8748 -0.3693,1.8023 -0.5817,2.7655c-6.2047,-9.1996 -23.3983,-32.1528 -43.8417,-37.7291c-8.3149,-2.2683 -16.028,-2.7074 -22.6571,-2.2644c-1.6934,0.1134 -3.3162,0.2841 -4.8605,0.4961c3.6144,-1.9256 7.3817,-3.6054 11.1818,-4.8736c6.0571,-2.0214 12.1924,-2.9996 17.8977,-2.2538c8.6629,1.133 17.2377,6.6197 24.4661,13.2171c11.2841,10.2991 19.1823,22.9314 19.0834,26.1017c-0.0284,0.9062 -0.2852,2.5129 -0.688,4.5405" id="path28"/>
      <path fill="#1a1a1a" fill-rule="nonzero" d="m243.1009,685.386181c-0.008,-0.0397 -2.9291,-13.9346 -3.3713,-26.2375c-0.1652,-4.5947 -0.0691,-8.7976 0.1335,-12.3321c0.334,-5.8111 0.9477,-9.701 1.1597,-10.5492c0.0992,-0.3977 0.2475,-0.9374 0.4756,-1.7713c1.7193,-6.2805 7.2185,-26.3676 7.3809,-31.5601c0.1193,-3.8265 -8.2848,-18.0434 -20.3247,-29.0319c-7.7227,-7.0486 -16.9875,-12.9243 -26.5442,-14.1741c-10.0545,-1.3144 -21.0892,2.1283 -30.9793,7.3321c-13.9912,7.3616 -25.8346,18.3697 -29.232,24.2875c-2.0741,3.6131 -3.5915,8.0901 -4.6839,12.4328c-1.9571,7.7794 -2.5674,15.2439 -2.5674,16.3239c0,1.6934 3.5232,12.4517 4.2713,14.7169l-2.4738,20.4675l23.9709,-18.6443c6.2254,0.9142 46.8405,6.9373 48.7582,8.7183c2.3003,2.1359 26.1714,44.0807 26.24,44.2012l1.0165,1.7858l7.0285,-4.714l-0.2585,-1.2515zm-7.1836,-26.1031c0.3739,10.4062 2.4642,21.8695 3.1941,25.6101l-1.4967,1.0038c-4.623,-8.0943 -23.5483,-41.1083 -25.9387,-43.3281c-2.9483,-2.7377 -51.4837,-9.8022 -51.6232,-9.8224l-0.8024,-0.1165l-18.0077,14.006l1.4732,-12.1878l-0.1395,-0.4159c-0.0119,-0.036 -4.2009,-12.5892 -4.2009,-13.926c0,-1.0007 0.5816,-7.9813 2.4474,-15.3967c1.0173,-4.0439 2.4134,-8.1836 4.2948,-11.4613c3.1419,-5.4729 14.3331,-15.7782 27.6927,-22.8073c9.2812,-4.8835 19.5404,-8.1269 28.7071,-6.9284c8.6629,1.133 17.2377,6.6197 24.4661,13.2171c11.2841,10.2991 19.1823,22.9314 19.0834,26.1017c-0.148,4.7344 -5.5556,24.4862 -7.2462,30.6629l-0.5057,1.8462c-0.2361,0.9454 -0.9131,5.1619 -1.2643,11.2669c-0.2072,3.6102 -0.3044,7.9234 -0.1335,12.6757" id="path30"/>
      <path fill="#ebb48d" fill-rule="evenodd" d="m119.7323,716.265981c0,0 -2.6014,3.0495 -5.0236,1.3904c-2.4219,-1.6594 -3.4084,-6.6382 -3.4534,-9.419c-0.0448,-2.7805 2.1974,-28.8839 3.7227,-33.01c1.525,-4.1261 6.0559,-6.4579 7.1762,-6.5481c1.12,-0.0901 2.5115,0.0899 2.5115,0.0899c0,0 -0.0896,3.0495 -0.0896,3.8568c0,0.8076 -4.8438,43.64 -4.8438,43.64" id="path32"/>
      <path fill="#1a1a1a" fill-rule="nonzero" d="m117.907,715.405381c-0.5144,0.4725 -1.4354,1.1437 -2.1217,0.6738c-0.6687,-0.4581 -1.22,-1.4519 -1.6469,-2.6164c-0.6557,-1.7887 -0.9542,-3.8441 -0.9768,-5.2552c-0.0264,-1.6282 0.7852,-11.7677 1.7654,-20.4602c0.6236,-5.5318 1.3031,-10.3955 1.8451,-11.8624c0.4799,-1.2983 1.356,-2.3964 2.2994,-3.257c1.4329,-1.3076 2.808,-2.0086 3.2321,-2.0426c0.1315,-0.0105 0.2673,-0.0168 0.4036,-0.0196c-0.0232,0.8555 -0.0448,1.7507 -0.0448,2.0602c0,0.6585 -4.1516,37.4344 -4.7554,42.7794zm-4.2746,3.8279c3.8409,2.6314 7.5246,-1.6994 7.5351,-1.7116l0.3965,-0.453l0.0666,-0.5933c0.0139,-0.1233 4.8592,-42.9443 4.8592,-43.8494c0,-0.9621 0.0819,-3.797 0.0819,-3.8046l0.0539,-1.715l-1.7133,-0.2285c-0.005,-0.0005 -1.6146,-0.2086 -2.9075,-0.1049c-0.9334,0.0749 -3.4251,1.1322 -5.5046,3.0294c-1.3382,1.2212 -2.5954,2.8165 -3.3165,4.7673c-0.6568,1.7782 -1.4001,6.9599 -2.054,12.7591c-0.9907,8.7876 -1.8088,19.1936 -1.7804,20.9386c0.0283,1.7623 0.3954,4.3138 1.201,6.5109c0.6724,1.8341 1.6724,3.4895 3.0821,4.455" id="path34"/>
      <path fill="#ebb48d" fill-rule="evenodd" d="m242.0169,730.146881c0.2693,0.4037 3.7675,5.203 8.9702,3.3642c5.2025,-1.8388 7.0413,-7.5353 7.9385,-12.7828c0.8971,-5.2473 0.6726,-28.6594 -2.8256,-33.3239c-3.4982,-4.6644 -9.1494,-6.4584 -12.1995,-5.4717c-3.0498,0.9868 -6.9964,4.6647 -6.9964,4.6647l1.3813,40.0677l3.7315,3.4818z" id="path36"/>
      <path fill="#1a1a1a" fill-rule="nonzero" d="m240.563,731.401781c0.5219,0.7013 2.3134,2.8574 5.0233,3.8736c1.7033,0.6386 3.7454,0.847 6.0364,0.0371c3.1175,-1.1021 5.2058,-3.3188 6.6376,-6.025c1.3357,-2.5248 2.0724,-5.4508 2.5489,-8.2378c0.5482,-3.206 0.7018,-12.8421 -0.001,-21.134c-0.5074,-5.9836 -1.4999,-11.4103 -3.1834,-13.655c-1.8405,-2.454 -4.2111,-4.2047 -6.5658,-5.2609c-2.8134,-1.2617 -5.69,-1.5471 -7.7415,-0.8832c-3.4622,1.1199 -7.7023,5.0717 -7.7142,5.0828l-0.6355,0.5899c0.4827,13.9116 0.9621,27.8231 1.4389,41.7347l4.1564,3.8778l-0.0001,0zm6.3539,0.3005c-1.9514,-0.7319 -3.17,-2.41 -3.3078,-2.6167l-0.1139,-0.1709l-3.3316,-3.1082l-1.3229,-38.3774c1.1594,-1.0023 3.6777,-3.0441 5.6432,-3.6799c1.2022,-0.3889 3.062,-0.144 5.0202,0.7341c1.8172,0.815 3.6481,2.168 5.0711,4.0649c1.1883,1.5846 1.965,6.3065 2.4205,11.6816c0.6801,8.0198 0.5556,17.1969 0.0462,20.1773c-0.4203,2.4593 -1.0525,5.0063 -2.1605,7.1013c-1.012,1.9126 -2.4452,3.4646 -4.5298,4.2013c-1.3178,0.4654 -2.4766,0.352 -3.4347,-0.007" id="path38"/>
      <path fill="#ebb48d" fill-rule="evenodd" d="m116.9504,729.272381l1.6591,-19.5103c0,0 2.3326,-31.8438 4.6647,-41.1729c2.3323,-9.3288 8.0064,-20.1152 15.5412,-27.8742c7.5348,-7.759 20.0032,-13.7239 27.4484,-14.6211c7.4449,-0.8969 20.3619,1.525 31.754,6.0999c11.3922,4.5745 29.5563,14.5766 36.1046,31.0813c6.5486,16.505 5.0908,55.1435 5.0908,55.1435c0,0 -1.0089,33.8851 -1.3678,39.4466c-0.3588,5.5613 -11.5687,41.4516 -43.1464,46.7337c-31.5774,5.2824 -53.9997,-9.6877 -53.9997,-9.6877c0,0 -17.0212,-13.7463 -21.2817,-24.0619c-4.2607,-10.3155 -2.4672,-41.5769 -2.4672,-41.5769" id="path40"/>
      <g id="g42">
       <g id="g44"/>
       <g id="g74" mask="url(#mask60)">
        <path fill="#5e4b43" fill-rule="evenodd" d="m120.9838,683.804181c0.7021,-6.2513 1.4964,-12.0385 2.2904,-15.215c2.3323,-9.3288 8.0064,-20.1152 15.5412,-27.8742c7.5348,-7.759 20.0032,-13.7239 27.4484,-14.6211c7.4449,-0.8969 20.3619,1.525 31.754,6.0999c11.3922,4.5745 29.5563,14.5766 36.1046,31.0813c4.9964,12.5926 5.332,38.0667 5.2104,49.4373c-1.8675,-9.5065 -6.2518,-29.8876 -10.3436,-34.5251c-5.3822,-6.0999 -14.8457,-9.4635 -14.8457,-9.4635c0,0 -1.7044,1.5248 -9.3288,5.9202c-7.6246,4.3954 -26.731,12.1096 -26.731,12.1096c0,0 -2.4219,-1.2557 -7.8939,-2.4219c-5.4717,-1.1659 -10.2257,0.8969 -10.2257,0.8969c0,0 -2.0633,-1.3453 -10.9434,-7.5348c-8.8804,-6.1892 -14.5315,-19.6444 -14.5315,-19.6444c0,0 -3.0501,1.4349 -5.1132,4.8436c-1.3328,2.2019 -5.5633,13.3166 -8.3922,20.9112" id="path76"/>
       </g>
      </g>
      <path fill="#ebb48d" fill-rule="evenodd" d="m149.6262,667.445681c0,0 12.5583,6.9517 13.0966,6.9517c0.538,0 5.9649,-0.1341 7.0413,0.0451c1.0766,0.1794 5.2922,1.6146 5.6511,1.6146c0.3589,0 19.6892,-5.1579 19.6892,-5.1579c0,0 6.01,-9.508 5.741,-10.764c-0.269,-1.2561 -11.5719,-10.0469 -14.0834,-10.495c-2.5115,-0.4485 -5.1128,0.3585 -14.6211,0.269c-9.5082,-0.0896 -13.6346,-1.8837 -13.6346,-1.8837c0,0 -13.7243,9.419 -13.8138,10.1365c-0.0899,0.7171 4.9337,9.2837 4.9337,9.2837" id="path78"/>
      <path fill="#1a1a1a" fill-rule="nonzero" d="m118.8567,729.429481l1.6591,-19.533c0.006,-0.091 2.3207,-31.6766 4.6122,-40.8438c1.1608,-4.644 3.1782,-9.6631 5.8561,-14.4661c2.5336,-4.5445 5.6557,-8.892 9.1993,-12.541c3.4413,-3.5436 7.9696,-6.7068 12.549,-9.1457c5.0232,-2.6759 10.0658,-4.4629 13.7557,-4.9074c3.5554,-0.4283 8.4823,-0.0481 13.9189,0.9959c5.4454,1.0459 11.3601,2.7521 16.9007,4.977c6.4636,2.5954 15.1566,6.9775 22.557,13.3481c5.2716,4.5383 9.872,10.0749 12.4863,16.6646c6.3981,16.1266 4.9598,54.263 4.9559,54.3733l0,0.0147c-0.003,0.0967 -1.0044,33.7465 -1.3678,39.3795c-0.2177,3.3764 -4.6817,18.5224 -15.7818,30.5453c-6.3035,6.8278 -14.7513,12.581 -25.7724,14.4244c-30.0319,5.0238 -51.44,-8.6213 -52.5875,-9.3699c-1.4096,-1.1509 -16.7266,-13.8045 -20.6158,-23.2212c-3.998,-9.6789 -2.408,-39.2553 -2.3283,-40.695l0.003,0.0003l0.0004,0zm-2.1515,-19.8244l-1.6609,19.5103l0,0.0598c-0.005,0.091 -1.8195,31.6758 2.6093,42.3989c4.4487,10.7717 21.7922,24.7766 21.8421,24.8171l0.1066,0.0864l0.0504,0.0332c0.0672,0.0439 23.0366,15.3788 55.3604,9.9717c11.9874,-2.0049 21.1428,-8.2267 27.9547,-15.6053c11.7833,-12.763 16.5455,-29.1994 16.7837,-32.8926c0.3512,-5.4448 1.3484,-38.8693 1.3671,-39.4988c0.005,-0.1123 1.4737,-39.0308 -5.2245,-55.9134c-2.8769,-7.2519 -7.8543,-13.2713 -13.5326,-18.1593c-7.7627,-6.683 -16.8679,-11.2743 -23.6336,-13.991c-5.7793,-2.3204 -11.939,-4.0983 -17.6032,-5.1863c-5.813,-1.1165 -11.1492,-1.5145 -15.0854,-1.0403c-4.1218,0.4964 -9.6579,2.4412 -15.1007,5.3405c-4.9039,2.6121 -9.7696,6.0157 -13.4912,9.8484c-3.7806,3.8931 -7.105,8.5195 -9.7971,13.3481c-2.8477,5.1077 -4.9938,10.4482 -6.2297,15.3932c-2.342,9.3691 -4.6505,40.5958 -4.7154,41.4794" id="path80"/>
      <path fill="#1a1a1a" fill-rule="evenodd" d="m196.8732,736.851381c2.8239,0 5.1128,-2.2892 5.1128,-5.1128c0,-2.8236 -2.2889,-5.1129 -5.1128,-5.1129c-2.8236,0 -5.1129,2.2893 -5.1129,5.1129c0,2.8236 2.2893,5.1128 5.1129,5.1128" id="path82"/>
      <path fill="#1a1a1a" fill-rule="evenodd" d="m143.9949,730.751281c2.8235,0 5.1128,-2.289 5.1128,-5.1129c0,-2.8236 -2.2893,-5.1125 -5.1128,-5.1125c-2.8239,0 -5.1129,2.2889 -5.1129,5.1125c0,2.8239 2.289,5.1129 5.1129,5.1129" id="path84"/>
      <path fill="#1a1a1a" fill-rule="nonzero" d="m162.907,719.785481c0.4085,0.9739 1.5299,1.4323 2.5039,1.0238c0.9743,-0.4084 1.4326,-1.5295 1.0241,-2.5038c-0.0189,-0.0451 -6.6319,-15.7663 -5.2401,-20.0186c1.1877,-3.6283 6.6526,-3.7074 6.668,-3.7077c1.0525,-0.0286 1.8824,-0.9057 1.8538,-1.9584c-0.0289,-1.0525 -0.9059,-1.8825 -1.9584,-1.8536c-0.0233,0.0003 -8.1545,0.1003 -10.1963,6.3388c-1.8374,5.6143 5.3246,22.6304 5.345,22.6795" id="path86"/>
      <path fill="#1a1a1a" fill-rule="nonzero" d="m148.039,668.925381c-0.9039,0.5406 -1.1984,1.7121 -0.6579,2.6161c0.5406,0.904 1.7122,1.1985 2.6161,0.6579c0.0284,-0.017 9.8652,-6.0721 24.1075,-3.0872c14.1608,2.9676 16.6023,7.1045 16.6097,7.1164c0.553,0.8997 1.7311,1.1809 2.6311,0.6278c0.9,-0.553 1.1809,-1.7314 0.6278,-2.6311c-0.01,-0.0158 -3.2924,-5.5394 -19.0913,-8.8506c-15.7175,-3.2941 -26.8106,3.5314 -26.843,3.5507" id="path88"/>
      <path fill="#5e4b43" fill-rule="evenodd" d="m118.6095,709.762081c0,0 -0.5831,23.6365 -1.1211,29.1079c-0.538,5.4717 0.1343,26.6862 8.2077,37.1812c8.0731,10.4953 13.4552,15.429 18.7475,16.5053c5.2925,1.0763 35.9251,5.9646 43.1906,7.2207c7.2658,1.256 21.4387,-2.6907 29.3324,-9.5083c7.8936,-6.8173 18.2993,-33.4587 18.479,-38.4817c0.1795,-5.023 3.5881,-30.1394 3.7676,-33.3686c0.1791,-3.2292 0.3588,-5.2024 0.3588,-5.2024c0,0 2.5115,16.8638 3.5878,18.299c1.0766,1.4349 3.0501,3.229 3.0501,3.229c0,0 -0.5386,34.4449 -11.482,49.5147c-10.9434,15.0701 -35.3421,29.0636 -61.5348,27.4487c-26.1927,-1.6146 -51.5333,-29.0182 -56.0182,-39.3338c-4.485,-10.3156 -4.216,-17.0433 -4.216,-21.9767c0,-4.9337 3.0943,-22.3807 3.6329,-27.8524c0.5383,-5.4717 2.0177,-12.7826 2.0177,-12.7826" id="path90"/>
      <path fill="#1a1a1a" fill-rule="nonzero" d="m119.387,739.057081c0.5431,-5.5253 1.1274,-29.1824 1.1288,-29.2502l0.5096,-21.3122l-4.2845,20.8859c-0.004,0.0213 -1.5007,7.4152 -2.0478,12.9773c-0.1922,1.9565 -0.777,5.8311 -1.4193,10.0879c-1.0389,6.8879 -2.2286,14.7731 -2.2286,17.9513l0.008,0l-0.002,0.7923c-0.0139,5.0266 -0.0329,11.8094 4.3744,21.9469c2.7456,6.3153 12.9319,18.7387 26.2922,28.12c9.3195,6.5441 20.2357,11.6716 31.3634,12.3576c12.5617,0.7745 24.7164,-1.9471 35.2445,-6.6432c12.015,-5.3595 21.9376,-13.3115 27.9496,-21.5904c11.2941,-15.5529 11.8386,-50.5055 11.8406,-50.6061l0.0165,-0.8597l-0.6443,-0.5831c-0.005,-0.005 -1.8324,-1.6657 -2.8032,-2.96c-0.7685,-1.0244 -3.2148,-17.3922 -3.2216,-17.4393l-2.317,-15.3601l-1.4729,15.4647c-0.0006,0.006 -0.188,2.06 -0.3665,5.2773c-0.0672,1.2169 -0.694,6.2946 -1.4154,12.145c-1.025,8.3075 -2.2419,18.1718 -2.3522,21.261c-0.0969,2.721 -3.5637,12.5606 -7.9684,21.7332c-3.1576,6.5756 -6.7573,12.6998 -9.8527,15.3732c-3.5824,3.094 -8.5714,5.5766 -13.5683,7.1963c-5.3856,1.7458 -10.7017,2.4743 -14.1942,1.8708c-2.3709,-0.4098 -8.2021,-1.3634 -14.7986,-2.4417c-11.3496,-1.8553 -25.0248,-4.0915 -28.332,-4.7639c-2.3017,-0.468 -4.6851,-1.8304 -7.4418,-4.2795c-2.9316,-2.6045 -6.2195,-6.3777 -10.1775,-11.5231c-2.9299,-3.8092 -4.8407,-9.21 -6.0539,-14.7073c-1.9579,-8.8696 -2.0844,-17.873 -1.7649,-21.1209zm-3.9254,5.0128c0.0952,4.5328 0.61,10.7815 1.9675,16.9305c1.319,5.9762 3.4407,11.9057 6.757,16.217c4.1147,5.3492 7.5552,9.2916 10.6557,12.0464c3.2754,2.9097 6.2297,4.5532 9.2205,5.1616c3.4418,0.6996 17.1252,2.9372 28.482,4.7936c6.3048,1.0307 11.8752,1.9418 14.7688,2.4418c4.0702,0.7036 10.0604,-0.0791 16.003,-2.0052c5.4411,-1.764 10.9116,-4.5 14.8991,-7.9438c3.5289,-3.0479 7.4404,-9.6291 10.7944,-16.6139c4.6006,-9.5808 8.2312,-20.1348 8.342,-23.2432c0.0998,-2.8004 1.3145,-12.6429 2.3369,-20.9325l0.4272,-3.4699c0.5457,2.5713 1.0896,4.6332 1.5194,5.2064c0.7684,1.0245 1.9281,2.1929 2.6475,2.8868c-0.1615,5.2725 -1.4774,34.3386 -11.1021,47.5923c-5.6464,7.7757 -15.0197,15.2688 -26.4093,20.3491c-10.0046,4.4628 -21.5478,7.0492 -33.4661,6.3147c-10.3241,-0.6364 -20.5761,-5.4813 -29.3899,-11.6699c-12.7854,-8.9776 -22.4408,-20.6538 -24.9914,-26.5204c-4.0909,-9.4099 -4.0734,-15.7346 -4.0603,-20.4219l0.002,-0.7923l0.007,0c0,-1.3091 0.2364,-3.5944 0.589,-6.3272" id="path92"/>
      <path fill="#1a1a1a" fill-rule="nonzero" d="m187.1195,743.325781c-0.7098,-0.7801 -1.9182,-0.8371 -2.6983,-0.1273c-0.7801,0.7098 -0.8371,1.9185 -0.1273,2.6983c0.0207,0.0227 7.1668,7.952 16.9761,7.2587c9.809,-0.6937 14.6072,-7.8883 14.6214,-7.9087c0.5981,-0.8668 0.3807,-2.0554 -0.4861,-2.6538c-0.8669,-0.5981 -2.0555,-0.3807 -2.6536,0.4862c-0.011,0.0161 -3.7992,5.7018 -11.7507,6.264c-7.9503,0.5618 -13.8643,-5.9987 -13.8815,-6.0174" id="path94"/>
      <path fill="#1a1a1a" fill-rule="nonzero" d="m158.1658,739.163881c0.7801,-0.7098 0.8371,-1.9184 0.1273,-2.6985c-0.7098,-0.7799 -1.9185,-0.8368 -2.6983,-0.127c-0.0187,0.017 -6.5047,6.0346 -14.3742,4.7664c-7.8616,-1.2665 -11.1254,-7.2587 -11.1345,-7.2754c-0.5119,-0.9204 -1.6736,-1.2518 -2.594,-0.7398c-0.9207,0.5116 -1.2518,1.6733 -0.7398,2.594c0.0119,0.0215 4.1541,7.6235 13.8705,9.1888c9.7083,1.5641 17.5206,-5.688 17.543,-5.7085" id="path96"/>
      <path fill="#1a1a1a" fill-rule="nonzero" d="m119.3547,625.924081c-0.0703,1.0528 0.7262,1.9633 1.7787,2.0336c1.0528,0.07 1.9633,-0.7265 2.0336,-1.779c0.005,-0.0786 1.6654,-27.1934 17.4212,-46.6254c8.2,-10.1138 18.4773,-18.1389 30.6813,-23.0389c11.2641,-4.5224 24.1929,-6.3904 38.6725,-4.7911c14.8547,1.641 24.9968,8.5861 31.9411,16.7817c7.0084,8.2706 10.8088,17.8463 12.9093,24.5857c4.1533,13.3248 -0.758,34.6892 -0.7719,34.7508c-0.231,1.0278 0.415,2.0488 1.4428,2.2799c1.0279,0.231 2.0489,-0.415 2.2799,-1.4429c0.0148,-0.0643 5.1551,-22.4212 0.6971,-36.7242c-2.2048,-7.0747 -6.2088,-17.1434 -13.6423,-25.9158c-7.4968,-8.8475 -18.4351,-16.3445 -34.4373,-18.1122c-15.133,-1.6719 -28.6795,0.2945 -40.5113,5.0451c-12.8327,5.1522 -23.6248,13.5723 -32.2212,24.175c-16.5361,20.3944 -18.2681,48.6958 -18.2735,48.7777" id="path98"/>
     </g>
    </g>
   </g>
  </g>
 </g>
</svg>